HIERARCHY
ROOT root
{
	OFFSET 0.000000 0.000000 0.000000
	CHANNELS 6 Xposition Yposition Zposition Zrotation Yrotation Xrotation
	JOINT lhip
	{
		OFFSET 0.058581 -0.082280 -0.017664
		CHANNELS 3 Zrotation Yrotation Xrotation
		JOINT lknee
		{
			OFFSET 0.043451 -0.386469 0.008037
			CHANNELS 3 Zrotation Yrotation Xrotation
			JOINT lankle
			{
				OFFSET -0.014790 -0.426874 -0.037428
				CHANNELS 3 Zrotation Yrotation Xrotation
				JOINT ltoe
				{
					OFFSET 0.041054 -0.060286 0.122042
					CHANNELS 3 Zrotation Yrotation Xrotation
					End Site
					{
						OFFSET 0.000000 0.000000 0.000000
					}
				}
			}
		}
	}
	JOINT rhip
	{
		OFFSET -0.060310 -0.090513 -0.013543
		CHANNELS 3 Zrotation Yrotation Xrotation
		JOINT rknee
		{
			OFFSET -0.043257 -0.383688 -0.004843
			CHANNELS 3 Zrotation Yrotation Xrotation
			JOINT rankle
			{
				OFFSET 0.019056 -0.420046 -0.034562
				CHANNELS 3 Zrotation Yrotation Xrotation
				JOINT rtoe
				{
					OFFSET -0.034840 -0.062106 0.130323
					CHANNELS 3 Zrotation Yrotation Xrotation
					End Site
					{
						OFFSET 0.000000 0.000000 0.000000
					}
				}
			}
		}
	}
	JOINT lowerback
	{
		OFFSET 0.004439 0.124404 -0.038385
		CHANNELS 3 Zrotation Yrotation Xrotation
		JOINT upperback
		{
			OFFSET 0.004488 0.137956 0.026820
			CHANNELS 3 Zrotation Yrotation Xrotation
			JOINT chest
			{
				OFFSET -0.002265 0.056032 0.002855
				CHANNELS 3 Zrotation Yrotation Xrotation
				JOINT lowerneck
				{
					OFFSET -0.013390 0.211636 -0.033468
					CHANNELS 3 Zrotation Yrotation Xrotation
					JOINT upperneck
					{
						OFFSET 0.010113 0.088937 0.050410
						CHANNELS 3 Zrotation Yrotation Xrotation
						End Site
						{
							OFFSET 0.000000 0.000000 0.000000
						}
					}
				}
				JOINT lclavicle
				{
					OFFSET 0.071702 0.114000 -0.018898
					CHANNELS 3 Zrotation Yrotation Xrotation
					JOINT lshoulder
					{
						OFFSET 0.122921 0.045205 -0.019046
						CHANNELS 3 Zrotation Yrotation Xrotation
						JOINT lelbow
						{
							OFFSET 0.255332 -0.015649 -0.022946
							CHANNELS 3 Zrotation Yrotation Xrotation
							JOINT lwrist
							{
								OFFSET 0.265709 0.012698 -0.007375
								CHANNELS 3 Zrotation Yrotation Xrotation
								End Site
								{
									OFFSET 0.000000 0.000000 0.000000
								}
							}
						}
					}
				}
				JOINT rclavicle
				{
					OFFSET -0.082954 0.112472 -0.023707
					CHANNELS 3 Zrotation Yrotation Xrotation
					JOINT rshoulder
					{
						OFFSET -0.113228 0.046853 -0.008472
						CHANNELS 3 Zrotation Yrotation Xrotation
						JOINT relbow
						{
							OFFSET -0.260127 -0.014369 -0.031269
							CHANNELS 3 Zrotation Yrotation Xrotation
							JOINT rwrist
							{
								OFFSET -0.269108 0.006794 -0.006027
								CHANNELS 3 Zrotation Yrotation Xrotation
								End Site
								{
									OFFSET 0.000000 0.000000 0.000000
								}
							}
						}
					}
				}
			}
		}
	}
}
MOTION
Frames: 17
Frame Time: 0.033333
-0.199960 0.832988 0.953350 36.118226 4.722557 89.673254 20.763092 12.068020 -21.092993 -3.798812 16.475372 28.469805 0.190530 9.399073 -10.202424 0.000000 -0.000000 0.000000 3.867945 1.687020 -19.141243 -0.393743 1.623462 35.110618 -1.655729 0.819319 -19.944055 0.000000 -0.000000 0.000000 -7.531712 -0.798978 26.244220 -8.630528 -1.399441 5.379870 -2.012949 1.936805 -4.319387 -3.156984 11.222365 -9.808537 9.356573 14.940966 3.838236 -20.591476 -25.221735 -3.933493 -49.034986 -28.703861 4.338206 41.061934 -41.702674 -51.203035 25.643896 9.445805 -33.167327 16.564667 34.884835 2.888188 71.782368 36.789153 28.880419 -11.647845 36.702900 7.898102 -7.270578 5.170399 25.222566 
-0.203089 0.838043 0.950091 33.079363 5.780469 90.366458 22.555483 13.579655 -21.882079 -3.387456 18.030422 30.147609 0.043979 9.313792 -10.480065 0.000000 -0.000000 0.000000 4.740536 2.289914 -20.431479 0.258176 2.105563 34.543504 -1.517040 2.332440 -19.001968 0.000000 -0.000000 0.000000 -8.652873 -1.653736 27.333795 -9.496221 -2.574560 5.955396 -2.583405 0.679560 -4.641802 -4.418040 13.021237 -9.952237 9.690170 17.604256 3.254325 -21.515079 -25.962038 -2.778478 -50.246496 -28.727762 4.110742 36.568594 -38.704792 -50.071554 25.972734 8.557268 -33.188029 15.442182 33.494023 2.395780 72.751853 34.526010 28.873747 -10.759354 37.195662 9.427391 -6.510736 4.184788 24.301456 
-0.207266 0.841835 0.946890 29.487522 6.606618 91.114896 24.340679 15.333961 -22.109949 -3.466197 19.373604 31.259715 -0.170043 10.022199 -10.708625 0.000000 -0.000000 0.000000 5.673263 3.992754 -22.360531 0.938058 3.012695 34.897001 -1.562044 2.609778 -17.903676 0.000000 -0.000000 0.000000 -10.304544 -2.623887 28.401930 -10.697834 -3.407754 5.164872 -3.202020 -0.483695 -4.467925 -5.277125 14.570554 -11.248540 10.062476 19.484792 3.357779 -22.663664 -26.073577 -1.710352 -50.296201 -27.917605 3.721799 32.893381 -37.549192 -44.931904 24.111951 8.698729 -36.251827 14.747457 31.940705 2.107098 73.907477 32.839894 29.075656 -9.729908 37.427130 12.934698 -4.899694 3.839854 21.883511 
-0.209527 0.844147 0.945505 27.224367 7.525024 90.971591 25.762181 16.387261 -21.801615 -2.771139 20.421065 32.509804 -0.265358 9.795773 -11.385712 0.000000 -0.000000 0.000000 6.731977 4.349563 -22.526857 1.275144 3.540560 34.522909 -1.674971 3.716914 -17.180844 0.000000 -0.000000 0.000000 -11.133850 -3.715188 29.729971 -11.860053 -4.750981 6.177473 -3.890839 -1.829434 -5.388284 -6.787717 15.532467 -11.890423 10.112614 21.513481 2.337326 -23.936379 -26.632813 -0.101408 -50.945850 -27.172720 2.825187 31.133625 -35.624601 -42.359500 19.767217 5.636633 -37.544550 13.336141 31.074125 1.705424 74.742797 30.940580 28.684337 -9.177417 38.374809 15.092136 -3.019609 3.466194 21.008992 
-0.211829 0.846321 0.943641 25.371932 8.117425 91.387953 26.648045 16.885673 -22.250788 -2.559850 20.562496 33.407127 0.136430 10.744084 -11.510517 0.000000 -0.000000 0.000000 7.550886 4.828863 -23.443105 1.634988 4.599213 34.529610 -1.754609 3.996809 -16.743738 0.000000 -0.000000 0.000000 -11.743445 -4.746231 30.514625 -13.151815 -5.903599 5.556235 -4.510910 -2.996415 -4.929037 -8.524336 15.249120 -12.990073 10.595110 23.937950 1.780487 -25.404534 -26.897040 1.008212 -51.960940 -27.325029 2.594404 31.220830 -35.066929 -43.889022 22.348649 7.446703 -37.516893 11.937892 29.987854 1.038540 74.908919 28.975964 28.185513 -7.799264 39.369814 16.432739 -3.834975 3.694492 21.109187 
-0.213642 0.847886 0.943088 23.584249 8.666994 91.757418 27.346053 17.377701 -22.487048 -1.937053 21.018818 34.163313 -0.117735 11.256233 -11.847370 0.000000 -0.000000 0.000000 8.185477 5.674594 -24.404288 1.772374 4.883492 34.806905 -1.389604 4.754493 -16.198805 0.000000 -0.000000 0.000000 -11.910422 -5.733464 31.848180 -14.392650 -6.597350 4.167889 -5.244191 -4.136595 -4.723250 -9.848592 14.992147 -13.942666 10.617210 25.074361 1.038053 -26.536046 -26.746094 2.113064 -53.712167 -27.507879 2.671066 30.650448 -34.305366 -42.322141 21.438006 7.564175 -37.901157 10.212926 28.067816 -0.161794 76.028486 26.887624 28.072739 -6.288432 40.225475 19.607014 -3.262468 3.716414 19.777216 
-0.216447 0.847827 0.942080 22.035857 8.944748 92.247236 27.994747 18.028103 -22.554533 -1.652928 21.547475 34.611593 -0.347108 11.218158 -11.965694 0.000000 -0.000000 0.000000 9.078805 6.559070 -25.078204 1.463605 6.004109 34.748628 -1.631861 4.713735 -15.927477 0.000000 -0.000000 0.000000 -12.561144 -6.368989 31.498039 -15.245387 -6.949328 4.544583 -5.764345 -4.867488 -4.902819 -10.904066 14.392072 -14.498246 10.336015 26.429857 0.164192 -27.487196 -26.360369 2.419541 -55.351093 -27.261313 3.077398 30.099860 -33.873946 -40.926396 20.977769 7.482062 -38.488889 9.389625 26.849695 -0.454819 76.020930 25.070055 27.909443 -5.391257 41.343655 20.976176 -3.118532 4.248507 18.857571 
-0.218203 0.847550 0.942815 21.296243 9.090976 92.329882 28.381631 17.904826 -22.330053 -1.493166 21.915969 34.616740 -0.765779 11.472844 -11.852198 0.000000 -0.000000 0.000000 9.343974 7.142079 -25.090847 1.284495 6.065364 34.463257 -1.480502 4.920220 -15.548232 0.000000 -0.000000 0.000000 -12.827093 -6.739738 32.250388 -15.859474 -7.333343 4.458396 -6.030853 -5.421759 -4.989366 -11.925850 13.924746 -15.434851 10.779214 26.628338 -0.228778 -28.297411 -26.311284 2.832108 -57.156556 -27.401874 3.491578 29.738350 -33.173266 -40.317625 20.602047 6.625534 -38.740907 8.497882 25.263838 -1.188977 76.050042 22.846110 27.523306 -4.199595 42.924764 23.102315 -2.280232 3.544942 17.637521 
-0.219672 0.846945 0.943220 20.586155 9.166417 92.432186 28.390806 18.085575 -22.246816 -1.288763 21.669492 34.472215 -0.545690 11.964429 -11.601276 0.000000 -0.000000 0.000000 9.746487 7.270114 -25.042159 1.507721 7.176529 34.056617 -1.555987 4.645463 -15.312779 0.000000 -0.000000 0.000000 -12.864239 -7.087198 32.441303 -16.365371 -7.433286 4.457662 -6.013073 -5.859076 -4.983838 -12.460274 13.165720 -15.957476 10.495098 27.812498 -0.637526 -29.133855 -26.232745 3.460867 -58.464829 -27.166636 4.109299 29.861524 -33.213159 -37.869990 19.983879 7.263349 -40.645942 7.665626 24.768207 -1.109753 75.692275 21.621575 27.042473 -3.213933 43.601226 24.922125 -2.270566 3.717165 16.190537 
-0.222429 0.846497 0.943193 20.073569 9.292036 92.925191 28.585528 18.272160 -22.457154 -1.112340 21.887541 34.240612 -0.721098 12.090443 -11.370052 0.000000 -0.000000 0.000000 10.069716 7.796988 -25.698685 1.428764 7.328014 34.145159 -1.476504 4.660513 -15.131267 0.000000 -0.000000 0.000000 -12.741008 -7.301971 31.938811 -16.286670 -7.223287 4.284138 -6.022592 -5.739869 -4.859746 -12.822963 12.749825 -15.672713 10.293162 28.355134 -1.170186 -29.350996 -26.184177 3.847812 -60.273122 -27.219328 4.608367 29.869253 -32.643408 -36.616927 19.466241 7.240946 -41.063780 6.979652 24.216498 -0.818034 75.743639 20.468247 26.360429 -2.710708 44.036732 26.088675 -2.725639 4.291506 15.102032 
-0.223661 0.845322 0.944656 20.273272 8.976230 92.745569 28.236868 17.975172 -22.061769 -0.809222 22.159358 33.784875 -0.869386 11.616191 -11.061527 0.000000 -0.000000 0.000000 9.914185 7.680912 -25.241231 1.113710 7.205245 33.847162 -1.474510 4.832931 -14.929912 0.000000 -0.000000 0.000000 -12.308061 -7.216635 31.828056 -16.089282 -7.180973 5.152322 -6.036193 -5.793301 -4.995223 -12.977101 13.398128 -15.842034 9.834473 27.409599 -1.283380 -28.834040 -26.009091 3.827590 -61.949323 -27.791208 5.327327 29.182017 -31.835942 -35.097636 17.043893 5.410554 -41.958882 7.461419 23.510834 -0.435801 75.085718 19.728544 25.914301 -2.179388 44.712241 27.190178 -2.213242 4.172564 13.709907 
-0.224783 0.843951 0.945788 20.490782 8.315194 92.848401 27.494560 17.758842 -21.862145 -0.895986 22.332681 33.081200 -0.648899 11.612683 -10.971352 0.000000 -0.000000 0.000000 9.421331 7.694730 -25.172366 1.007738 7.479539 33.676788 -1.459755 4.503195 -15.071585 0.000000 -0.000000 0.000000 -12.064903 -7.166436 31.384142 -15.745440 -6.946323 5.171118 -5.676081 -5.637676 -4.882275 -12.888707 13.068558 -15.500498 9.491692 27.833932 -1.575345 -29.044155 -25.928947 3.657824 -62.502192 -27.908379 5.705603 29.278944 -30.929936 -36.424730 21.227457 6.495639 -38.666995 7.832918 23.412417 -0.347763 74.976675 18.959260 26.124964 -2.153280 44.486128 25.992192 -3.966983 5.041050 14.612712 
-0.226493 0.842409 0.947017 20.644724 7.795943 92.634142 27.014172 17.862776 -21.266850 -0.844415 22.628642 32.390533 -1.025568 11.081982 -10.603034 0.000000 -0.000000 0.000000 9.243810 7.911839 -24.916293 0.562654 7.413892 33.860111 -1.742044 4.112467 -15.303967 0.000000 -0.000000 0.000000 -11.674297 -7.150515 30.922870 -15.064291 -6.393752 5.004122 -5.466927 -5.084729 -4.666763 -12.534525 13.111009 -14.947500 9.097510 27.199211 -1.724497 -28.552756 -25.456780 3.097430 -63.613980 -27.915184 6.216617 29.799819 -30.835992 -35.800411 18.894035 6.682322 -37.256649 8.648464 23.297320 0.030396 74.799988 18.940007 25.981929 -2.399553 44.183006 25.571691 -4.171743 4.294973 14.988096 
-0.227523 0.840652 0.948333 21.489121 6.893725 92.575650 26.064958 17.033106 -20.937155 -1.093903 22.903121 31.463326 -0.825945 11.153681 -10.581222 0.000000 -0.000000 0.000000 8.436691 8.067354 -24.707270 0.437614 7.375682 34.026531 -1.752033 3.187875 -15.774718 0.000000 -0.000000 0.000000 -11.374313 -6.984706 29.617116 -14.031906 -6.132124 5.917422 -4.934858 -4.743530 -4.235592 -12.069966 12.987498 -15.455428 8.517462 26.291600 -1.290809 -28.334331 -25.490208 2.921119 -63.481140 -28.881755 6.554793 30.084839 -30.570720 -37.731825 21.621651 6.938585 -34.709933 9.771643 23.587940 0.328152 74.063221 19.522635 26.513338 -2.920711 43.682055 23.752862 -5.104129 4.692567 15.622391 
-0.227678 0.838462 0.949675 22.127823 6.082781 92.195589 25.255041 16.452269 -20.188901 -1.275422 22.913671 30.551717 -0.686359 10.952331 -10.510539 0.000000 -0.000000 0.000000 7.761348 8.308827 -24.075173 0.220187 7.307768 34.142747 -1.864561 2.513356 -16.395383 0.000000 -0.000000 0.000000 -10.689091 -6.785116 28.746983 -12.905390 -5.689267 6.096579 -4.423758 -4.216327 -4.023426 -11.629553 13.168020 -15.427116 8.217545 25.036099 -0.714905 -28.074527 -25.574432 2.595354 -63.344385 -29.464550 6.751651 29.997426 -30.133968 -37.967847 21.624289 5.368581 -32.185388 10.771473 23.950895 0.636092 73.587578 19.975351 26.589491 -3.657727 43.232357 22.068507 -5.702984 4.714305 16.118199 
-0.228696 0.836494 0.950565 22.583810 5.079800 92.219878 24.237261 15.885361 -19.720387 -1.502115 23.145850 29.473848 -0.342120 11.089404 -10.260125 0.000000 -0.000000 0.000000 7.005915 8.875367 -24.209897 -0.006507 7.475569 34.913219 -2.023229 1.121794 -17.037887 0.000000 -0.000000 0.000000 -10.578672 -6.658957 27.068969 -11.522428 -4.830758 6.141163 -3.663186 -3.539763 -3.820999 -10.675569 12.381462 -14.104518 6.873845 25.126681 -1.698303 -27.296212 -25.157509 2.070838 -63.168456 -30.099903 7.521087 30.418647 -31.483810 -38.378912 23.124123 6.800599 -31.670908 12.109508 24.386317 1.824441 72.788569 21.158008 26.881692 -4.921567 43.022946 19.473058 -5.869086 4.431709 15.629876 
-0.224027 0.832830 0.953716 23.995930 3.907108 90.811643 22.133211 15.309566 -18.214668 -0.940643 21.877856 28.397122 -0.273989 10.820551 -10.059002 0.000000 -0.000000 0.000000 6.212533 6.552675 -22.099568 -0.400714 7.957378 34.689246 -1.958033 1.451829 -17.863845 0.000000 -0.000000 0.000000 -8.440757 -5.987641 27.119692 -10.889101 -5.091786 6.686460 -3.512709 -3.169321 -3.853454 -9.945951 13.029088 -14.896314 7.481541 23.447389 -0.922864 -26.251731 -26.195674 0.806378 -62.893832 -30.585082 8.108933 29.758616 -32.103326 -38.108253 25.569211 7.064325 -30.525766 13.105125 25.026306 1.540313 72.319673 21.495531 26.431371 -6.213085 42.731858 17.028498 -7.728733 4.751685 15.855893 
